<svg xmlns="http://www.w3.org/2000/svg" xmlns:xlink="http://www.w3.org/1999/xlink" width="960" zoomAndPan="magnify" viewBox="0 0 720 404.99999" height="540" preserveAspectRatio="xMidYMid meet" version="1.0"><defs><g/><clipPath id="6e85020ca2"><path d="M 228.664062 71.164062 L 491 71.164062 L 491 333.664062 L 228.664062 333.664062 Z M 228.664062 71.164062 " clip-rule="nonzero"/></clipPath></defs><g fill="#ffffff" fill-opacity="1"><g transform="translate(72.756779, 235.874984)"><g><path d="M 60.25 -32.28125 L 60.25 -6.234375 C 56.988281 -3.828125 53.507812 -2.066406 49.8125 -0.953125 C 46.113281 0.160156 42.15625 0.71875 37.9375 0.71875 C 32.6875 0.71875 27.929688 -0.0976562 23.671875 -1.734375 C 19.410156 -3.367188 15.769531 -5.640625 12.75 -8.546875 C 9.738281 -11.460938 7.414062 -14.9375 5.78125 -18.96875 C 4.15625 -23.007812 3.34375 -27.421875 3.34375 -32.203125 C 3.34375 -37.035156 4.128906 -41.46875 5.703125 -45.5 C 7.273438 -49.539062 9.507812 -53.015625 12.40625 -55.921875 C 15.300781 -58.835938 18.8125 -61.097656 22.9375 -62.703125 C 27.0625 -64.304688 31.691406 -65.109375 36.828125 -65.109375 C 39.441406 -65.109375 41.882812 -64.898438 44.15625 -64.484375 C 46.425781 -64.066406 48.53125 -63.492188 50.46875 -62.765625 C 52.414062 -62.035156 54.191406 -61.148438 55.796875 -60.109375 C 57.398438 -59.078125 58.867188 -57.9375 60.203125 -56.6875 L 56.78125 -51.25 C 56.238281 -50.394531 55.535156 -49.867188 54.671875 -49.671875 C 53.816406 -49.484375 52.882812 -49.703125 51.875 -50.328125 C 50.894531 -50.890625 49.914062 -51.453125 48.9375 -52.015625 C 47.957031 -52.578125 46.863281 -53.066406 45.65625 -53.484375 C 44.457031 -53.898438 43.109375 -54.238281 41.609375 -54.5 C 40.109375 -54.769531 38.378906 -54.90625 36.421875 -54.90625 C 33.242188 -54.90625 30.367188 -54.367188 27.796875 -53.296875 C 25.234375 -52.234375 23.046875 -50.707031 21.234375 -48.71875 C 19.429688 -46.726562 18.039062 -44.335938 17.0625 -41.546875 C 16.082031 -38.753906 15.59375 -35.640625 15.59375 -32.203125 C 15.59375 -28.515625 16.117188 -25.222656 17.171875 -22.328125 C 18.222656 -19.429688 19.707031 -16.984375 21.625 -14.984375 C 23.539062 -12.984375 25.847656 -11.453125 28.546875 -10.390625 C 31.242188 -9.335938 34.253906 -8.8125 37.578125 -8.8125 C 39.953125 -8.8125 42.078125 -9.0625 43.953125 -9.5625 C 45.828125 -10.070312 47.65625 -10.757812 49.4375 -11.625 L 49.4375 -23.296875 L 41.328125 -23.296875 C 40.554688 -23.296875 39.953125 -23.507812 39.515625 -23.9375 C 39.085938 -24.363281 38.875 -24.890625 38.875 -25.515625 L 38.875 -32.28125 Z M 60.25 -32.28125 "/></g></g></g><g fill="#ffffff" fill-opacity="1"><g transform="translate(137.416202, 235.874984)"><g><path d="M 16.828125 -45.6875 L 16.828125 0 L 5.796875 0 L 5.796875 -45.6875 Z M 18.34375 -59 C 18.34375 -58.050781 18.148438 -57.160156 17.765625 -56.328125 C 17.378906 -55.492188 16.867188 -54.765625 16.234375 -54.140625 C 15.597656 -53.523438 14.847656 -53.03125 13.984375 -52.65625 C 13.117188 -52.289062 12.195312 -52.109375 11.21875 -52.109375 C 10.269531 -52.109375 9.375 -52.289062 8.53125 -52.65625 C 7.6875 -53.03125 6.953125 -53.523438 6.328125 -54.140625 C 5.703125 -54.765625 5.203125 -55.492188 4.828125 -56.328125 C 4.460938 -57.160156 4.28125 -58.050781 4.28125 -59 C 4.28125 -59.976562 4.460938 -60.898438 4.828125 -61.765625 C 5.203125 -62.628906 5.703125 -63.367188 6.328125 -63.984375 C 6.953125 -64.609375 7.6875 -65.109375 8.53125 -65.484375 C 9.375 -65.859375 10.269531 -66.046875 11.21875 -66.046875 C 12.195312 -66.046875 13.117188 -65.859375 13.984375 -65.484375 C 14.847656 -65.109375 15.597656 -64.609375 16.234375 -63.984375 C 16.867188 -63.367188 17.378906 -62.628906 17.765625 -61.765625 C 18.148438 -60.898438 18.34375 -59.976562 18.34375 -59 Z M 18.34375 -59 "/></g></g></g><g fill="#ffffff" fill-opacity="1"><g transform="translate(160.038092, 235.874984)"><g><path d="M 20.65625 0.71875 C 16.6875 0.71875 13.640625 -0.398438 11.515625 -2.640625 C 9.390625 -4.890625 8.328125 -7.988281 8.328125 -11.9375 L 8.328125 -37.453125 L 3.65625 -37.453125 C 3.0625 -37.453125 2.554688 -37.644531 2.140625 -38.03125 C 1.722656 -38.414062 1.515625 -38.992188 1.515625 -39.765625 L 1.515625 -44.125 L 8.859375 -45.328125 L 11.171875 -57.796875 C 11.328125 -58.390625 11.609375 -58.847656 12.015625 -59.171875 C 12.429688 -59.503906 12.96875 -59.671875 13.625 -59.671875 L 19.328125 -59.671875 L 19.328125 -45.28125 L 31.53125 -45.28125 L 31.53125 -37.453125 L 19.328125 -37.453125 L 19.328125 -12.6875 C 19.328125 -11.257812 19.675781 -10.144531 20.375 -9.34375 C 21.070312 -8.550781 22.03125 -8.15625 23.25 -8.15625 C 23.925781 -8.15625 24.492188 -8.234375 24.953125 -8.390625 C 25.421875 -8.554688 25.820312 -8.726562 26.15625 -8.90625 C 26.5 -9.082031 26.800781 -9.25 27.0625 -9.40625 C 27.332031 -9.570312 27.601562 -9.65625 27.875 -9.65625 C 28.195312 -9.65625 28.460938 -9.570312 28.671875 -9.40625 C 28.878906 -9.25 29.101562 -9.007812 29.34375 -8.6875 L 32.640625 -3.34375 C 31.035156 -2.007812 29.191406 -1 27.109375 -0.3125 C 25.035156 0.371094 22.882812 0.71875 20.65625 0.71875 Z M 20.65625 0.71875 "/></g></g></g><g fill="#ffffff" fill-opacity="1"><g transform="translate(193.178646, 235.874984)"><g/></g></g><g fill="#ffffff" fill-opacity="1"><g transform="translate(214.820853, 235.874984)"><g/></g></g><g fill="#ffffff" fill-opacity="1"><g transform="translate(236.463059, 235.874984)"><g/></g></g><g fill="#ffffff" fill-opacity="1"><g transform="translate(258.105265, 235.874984)"><g/></g></g><g fill="#ffffff" fill-opacity="1"><g transform="translate(279.747472, 235.874984)"><g/></g></g><g fill="#ffffff" fill-opacity="1"><g transform="translate(301.389678, 235.874984)"><g/></g></g><g fill="#ffffff" fill-opacity="1"><g transform="translate(323.031884, 235.874984)"><g/></g></g><g fill="#ffffff" fill-opacity="1"><g transform="translate(344.67409, 235.874984)"><g/></g></g><g fill="#ffffff" fill-opacity="1"><g transform="translate(366.316297, 235.874984)"><g/></g></g><g fill="#ffffff" fill-opacity="1"><g transform="translate(387.958492, 235.874984)"><g/></g></g><g fill="#ffffff" fill-opacity="1"><g transform="translate(409.60071, 235.874984)"><g/></g></g><g fill="#ffffff" fill-opacity="1"><g transform="translate(431.242928, 235.874984)"><g/></g></g><g fill="#ffffff" fill-opacity="1"><g transform="translate(452.885124, 235.874984)"><g/></g></g><g fill="#ffffff" fill-opacity="1"><g transform="translate(474.527319, 235.874984)"><g/></g></g><g fill="#ffffff" fill-opacity="1"><g transform="translate(496.169537, 235.874984)"><g/></g></g><g fill="#ffffff" fill-opacity="1"><g transform="translate(517.82316, 235.874984)"><g><path d="M 44.890625 -9.890625 L 44.890625 0 L 7.171875 0 L 7.171875 -64.390625 L 19.15625 -64.390625 L 19.15625 -9.890625 Z M 44.890625 -9.890625 "/></g></g></g><g fill="#ffffff" fill-opacity="1"><g transform="translate(564.091162, 235.874984)"><g><path d="M 41.1875 -24.3125 L 33.359375 -45.734375 C 32.972656 -46.679688 32.570312 -47.804688 32.15625 -49.109375 C 31.738281 -50.421875 31.320312 -51.832031 30.90625 -53.34375 C 30.519531 -51.832031 30.117188 -50.414062 29.703125 -49.09375 C 29.285156 -47.769531 28.882812 -46.617188 28.5 -45.640625 L 20.703125 -24.3125 Z M 62.34375 0 L 53.078125 0 C 52.035156 0 51.1875 -0.257812 50.53125 -0.78125 C 49.882812 -1.300781 49.398438 -1.945312 49.078125 -2.71875 L 44.265625 -15.859375 L 17.59375 -15.859375 L 12.78125 -2.71875 C 12.539062 -2.03125 12.078125 -1.40625 11.390625 -0.84375 C 10.710938 -0.28125 9.867188 0 8.859375 0 L -0.484375 0 L 24.84375 -64.390625 L 37.046875 -64.390625 Z M 62.34375 0 "/></g></g></g><g fill="#ffffff" fill-opacity="1"><g transform="translate(625.945112, 235.874984)"><g><path d="M 61.453125 -64.390625 L 61.453125 0 L 55.3125 0 C 54.363281 0 53.566406 -0.15625 52.921875 -0.46875 C 52.285156 -0.78125 51.671875 -1.304688 51.078125 -2.046875 L 17.453125 -44.984375 C 17.628906 -43.015625 17.71875 -41.203125 17.71875 -39.546875 L 17.71875 0 L 7.171875 0 L 7.171875 -64.390625 L 13.453125 -64.390625 C 13.953125 -64.390625 14.382812 -64.367188 14.75 -64.328125 C 15.125 -64.285156 15.453125 -64.195312 15.734375 -64.0625 C 16.023438 -63.925781 16.300781 -63.726562 16.5625 -63.46875 C 16.832031 -63.21875 17.128906 -62.890625 17.453125 -62.484375 L 51.21875 -19.375 C 51.125 -20.414062 51.046875 -21.4375 50.984375 -22.4375 C 50.929688 -23.445312 50.90625 -24.382812 50.90625 -25.25 L 50.90625 -64.390625 Z M 61.453125 -64.390625 "/></g></g></g><g clip-path="url(#6e85020ca2)"><path fill="#f03c2e" d="M 371.8125 328.535156 C 365.238281 335.105469 354.585938 335.105469 348.015625 328.535156 L 233.789062 214.3125 C 227.21875 207.738281 227.21875 197.085938 233.789062 190.515625 L 312.320312 111.984375 L 342.167969 141.835938 C 339.511719 149.007812 341.0625 157.386719 346.824219 163.148438 C 348.574219 164.898438 350.5625 166.257812 352.6875 167.230469 L 352.6875 239.972656 C 350.5625 240.945312 348.574219 242.308594 346.824219 244.058594 C 338.9375 251.941406 338.9375 264.726562 346.824219 272.613281 C 354.710938 280.5 367.496094 280.5 375.378906 272.613281 C 383.265625 264.726562 383.265625 251.941406 375.378906 244.058594 C 373.632812 242.308594 371.640625 240.945312 369.515625 239.972656 L 369.515625 169.179688 L 396.902344 196.566406 C 394.242188 203.738281 395.792969 212.117188 401.558594 217.878906 C 409.441406 225.765625 422.226562 225.765625 430.113281 217.878906 C 438 209.996094 438 197.210938 430.113281 189.324219 C 424.351562 183.5625 415.972656 182.011719 408.800781 184.667969 L 380.035156 155.902344 C 382.695312 148.734375 381.144531 140.355469 375.378906 134.589844 C 369.617188 128.828125 361.238281 127.277344 354.066406 129.9375 L 324.21875 100.085938 L 348.015625 76.289062 C 354.585938 69.71875 365.238281 69.71875 371.8125 76.289062 L 486.035156 190.515625 C 492.605469 197.085938 492.605469 207.738281 486.035156 214.3125 Z M 371.8125 328.535156 " fill-opacity="1" fill-rule="nonzero"/></g></svg>